# This file uses centimeters as units for non-parametric coordinates.

mtllib Dead_Tree.mtl
g default
v 0.817532 -0.213196 -3.216016
v -3.003101 -0.231723 -2.021616
v -3.003101 -0.231723 2.005560
v 0.826969 -0.231723 3.250025
v 3.194084 -0.231723 -0.008028
v 0.697774 3.747846 -2.702884
v -2.489165 5.391054 -1.700337
v -2.489165 4.002982 1.684280
v 0.705646 2.396786 2.730186
v 2.680148 4.621218 -0.008028
v -0.227415 -0.213196 0.000000
v 0.392919 9.462785 -1.368240
v -1.164433 9.592268 -0.860480
v -1.164433 9.592268 0.782667
v 0.392919 9.462785 1.290427
v 1.355415 9.382760 -0.038906
v 0.364576 11.078106 -1.198520
v -1.044369 11.078106 -0.740726
v -1.044369 11.078106 0.740726
v 0.364576 11.078106 1.198519
v 1.235352 11.078106 -0.000001
v 0.332172 13.393332 -1.102729
v -0.907101 13.225387 -0.696385
v -0.907102 13.225388 0.618574
v 0.332171 13.393332 1.024918
v 1.098085 13.497128 -0.038907
v 0.309018 15.192824 -0.951057
v -0.809018 15.192824 -0.587785
v -0.809018 15.192825 0.587784
v 0.309018 15.192825 0.951055
v 1.000002 15.192824 -0.000002
v 0.308790 18.386988 -0.912161
v -0.808051 18.335274 -0.548882
v -0.808051 18.335276 0.626690
v 0.308791 18.386990 0.989966
v 0.999037 18.418949 0.038903
v 0.321678 19.104948 -1.007453
v -0.862644 19.104948 -0.622636
v -0.862643 19.104950 0.622632
v 0.321679 19.104950 1.007445
v 1.053630 19.104948 -0.000004
v 0.309022 24.764189 -0.951092
v -0.809026 24.764189 -0.587811
v -0.809022 24.764191 0.587790
v 0.309025 24.764191 0.951052
v 1.000017 24.764189 -0.000018
v 0.230432 26.598495 -0.933614
v -0.808276 26.763720 -0.591870
v -0.808272 26.763720 0.514036
v 0.230435 26.598495 0.855761
v 0.872392 26.496380 -0.038926
v 0.246037 40.750534 -0.670553
v -0.542196 40.750534 -0.414429
v 0.028177 40.750534 -0.000030
v -0.542192 40.750534 0.414379
v 0.246040 40.750534 0.670483
v 0.733195 40.750534 -0.000031
v -4.236414 -0.231723 -0.746344
v -4.236414 -0.231723 0.730287
v -3.722478 2.003200 0.612485
v -3.722477 3.231418 -0.628542
v 3.721036 -0.231723 -1.864028
v 2.638384 -0.213196 -3.075934
v 2.583827 2.381398 -2.882084
v 3.486910 1.896328 -1.864028
v 2.904980 -0.231723 2.985086
v 3.378402 -0.231723 2.080072
v 3.275615 3.010087 1.564591
v 2.880715 2.396786 2.840687
v -6.373172 -0.380400 -0.250767
v -6.373172 -0.380400 0.280955
v -6.188106 0.424375 0.238535
v -6.188106 0.424375 -0.208348
v 5.156431 -0.285731 4.262567
v 5.298704 -0.285731 3.990592
v 5.267815 0.577294 3.990592
v 5.149140 0.504192 4.219172
v 5.427591 -0.039778 -3.791506
v 5.110276 -0.034348 -4.146704
v 5.094286 0.726106 -4.089889
v 5.358971 0.801911 -3.791506
v -1.855290 -0.125270 -4.098897
v -3.722814 -0.134327 -3.515076
v -3.471602 2.614086 -3.358036
v -1.913828 1.810885 -3.848080
v -4.325657 -0.134327 -2.891721
v -4.074445 1.558455 -2.834142
v -3.950202 -0.319851 -5.690491
v -4.812078 -0.324030 -5.421052
v -4.696142 0.944383 -5.348577
v -3.977219 0.573700 -5.574738
v -5.090295 -0.324030 -5.133369
v -4.974359 0.457201 -5.106798
v -5.068787 -0.233355 -7.310762
v -5.460429 -0.235255 -7.188327
v -5.407747 0.341121 -7.155395
v -5.081063 0.172680 -7.258163
v -5.586853 -0.235255 -7.057602
v -5.534171 0.119742 -7.045528
v -2.846013 -0.505456 3.794632
v -1.952694 -0.505456 4.079066
v -2.020511 1.006432 3.892350
v -2.766308 1.930297 3.652189
v -3.109165 0.780046 3.312371
v -3.205607 -0.505456 3.379550
v -4.379188 -0.357915 7.033651
v -4.060283 -0.357915 7.135190
v -4.084493 0.181811 7.068536
v -4.350734 0.511619 6.982801
v -4.473130 0.100993 6.861490
v -4.507558 -0.357915 6.885472
vt 0.548284 0.007647
vt 0.373591 0.064409
vt 0.373591 0.248091
vt 0.548284 0.304853
vt 0.656250 0.156250
vt 0.375000 0.312500
vt 0.425000 0.312500
vt 0.475000 0.312500
vt 0.525000 0.312500
vt 0.575000 0.312500
vt 0.625000 0.312500
vt 0.375000 0.688440
vt 0.425000 0.688440
vt 0.475000 0.688440
vt 0.525000 0.688440
vt 0.575000 0.688440
vt 0.625000 0.688440
vt 0.548284 0.695147
vt 0.373591 0.751909
vt 0.373591 0.935591
vt 0.548284 0.992353
vt 0.656250 0.843750
vt 0.500000 0.150000
vt 0.500000 0.837500
vt 0.548284 0.992353
vt 0.373591 0.935591
vt 0.373591 0.751909
vt 0.548284 0.695147
vt 0.656250 0.843750
vt 0.548284 0.992353
vt 0.373591 0.935591
vt 0.373591 0.751909
vt 0.548284 0.695147
vt 0.656250 0.843750
vt 0.548284 0.992353
vt 0.373591 0.935591
vt 0.373591 0.751909
vt 0.548284 0.695147
vt 0.656250 0.843750
vt 0.548284 0.992353
vt 0.373591 0.935591
vt 0.373591 0.751909
vt 0.548284 0.695147
vt 0.656250 0.843750
vt 0.548284 0.992353
vt 0.373591 0.935591
vt 0.373591 0.751909
vt 0.548284 0.695147
vt 0.656250 0.843750
vt 0.548284 0.992353
vt 0.373591 0.935591
vt 0.373591 0.751909
vt 0.548284 0.695147
vt 0.656250 0.843750
vt 0.548284 0.992353
vt 0.373591 0.935591
vt 0.373591 0.751909
vt 0.548284 0.695147
vt 0.656250 0.843750
vt 0.548284 0.992353
vt 0.373591 0.935591
vt 0.373591 0.751909
vt 0.548284 0.695147
vt 0.656250 0.843750
vt 0.548284 0.992353
vt 0.373591 0.935591
vt 0.373591 0.751909
vt 0.548284 0.695147
vt 0.656250 0.843750
vt 0.425000 0.312500
vt 0.475000 0.312500
vt 0.475000 0.688440
vt 0.425000 0.688440
vt 0.575000 0.312500
vt 0.625000 0.312500
vt 0.625000 0.688440
vt 0.575000 0.688440
vt 0.525000 0.312500
vt 0.575000 0.312500
vt 0.575000 0.688440
vt 0.525000 0.688440
vt 0.425000 0.312500
vt 0.475000 0.312500
vt 0.475000 0.688440
vt 0.425000 0.688440
vt 0.525000 0.312500
vt 0.575000 0.312500
vt 0.575000 0.688440
vt 0.525000 0.688440
vt 0.575000 0.312500
vt 0.625000 0.312500
vt 0.625000 0.688440
vt 0.575000 0.688440
vt 0.375000 0.312500
vt 0.425000 0.312500
vt 0.425000 0.688440
vt 0.375000 0.688440
vt 0.425000 0.312500
vt 0.425000 0.688440
vt 0.375000 0.312500
vt 0.425000 0.312500
vt 0.425000 0.688440
vt 0.375000 0.688440
vt 0.425000 0.312500
vt 0.425000 0.688440
vt 0.375000 0.312500
vt 0.425000 0.312500
vt 0.425000 0.688440
vt 0.375000 0.688440
vt 0.425000 0.312500
vt 0.425000 0.688440
vt 0.475000 0.312500
vt 0.525000 0.312500
vt 0.525000 0.688440
vt 0.475000 0.688440
vt 0.475000 0.688440
vt 0.475000 0.312500
vt 0.475000 0.312500
vt 0.525000 0.312500
vt 0.525000 0.688440
vt 0.475000 0.688440
vt 0.475000 0.688440
vt 0.475000 0.312500
vn -0.277764 0.094654 -0.955975
vn -0.277764 0.094654 -0.955975
vn -0.277764 0.094654 -0.955975
vn -0.277764 0.094654 -0.955975
vn -0.974564 0.224111 0.000000
vn -0.974564 0.224111 0.000000
vn -0.974564 0.224111 0.000000
vn -0.974564 0.224111 0.000000
vn -0.262128 0.080971 0.961630
vn -0.262128 0.080971 0.961630
vn -0.262128 0.080971 0.961630
vn -0.262128 0.080971 0.961630
vn 0.884303 0.032654 0.465770
vn 0.884303 0.032654 0.465770
vn 0.884303 0.032654 0.465770
vn 0.884303 0.032654 0.465770
vn 0.741972 0.062854 -0.667478
vn 0.741972 0.062854 -0.667478
vn 0.741972 0.062854 -0.667478
vn 0.741972 0.062854 -0.667478
vn 0.006043 -0.999981 0.000867
vn 0.000005 -1.000000 0.000002
vn 0.000670 -0.999998 -0.002073
vn 0.004383 -0.999985 -0.003171
vn -0.001674 -0.999985 -0.005157
vn -0.005421 -0.999981 -0.002860
vn 0.000000 1.000000 -0.000000
vn 0.000000 1.000000 -0.000004
vn 0.000000 1.000000 0.000002
vn 0.000000 1.000000 0.000004
vn 0.000000 1.000000 0.000004
vn 0.000000 1.000000 0.000004
vn -0.216011 0.230288 -0.948845
vn -0.216011 0.230288 -0.948845
vn -0.229542 0.210805 -0.950196
vn -0.228123 0.212863 -0.950079
vn -0.962656 0.260964 0.072047
vn -0.962656 0.260965 0.072047
vn -0.969713 0.236223 0.062092
vn -0.969412 0.237337 0.062539
vn -0.239668 0.195120 0.951046
vn -0.239668 0.195120 0.951046
vn -0.247421 0.179354 0.952164
vn -0.248386 0.177376 0.952283
vn 0.748788 0.182880 0.637081
vn 0.748787 0.182880 0.637081
vn 0.757371 0.166018 0.631527
vn 0.758502 0.163748 0.630763
vn 0.772698 0.195353 -0.603967
vn 0.772698 0.195353 -0.603967
vn 0.778977 0.176926 -0.601574
vn 0.778521 0.178297 -0.601760
vn -0.308658 0.064645 -0.948974
vn -0.308697 0.064344 -0.948982
vn -0.997453 0.071331 -0.000000
vn -0.997450 0.071366 -0.000000
vn -0.310652 0.061148 0.948555
vn -0.310612 0.061023 0.948576
vn 0.808495 0.050945 0.586294
vn 0.808497 0.050931 0.586292
vn 0.808834 0.052879 -0.585654
vn 0.808836 0.052715 -0.585667
vn -0.312943 0.050193 -0.948445
vn -0.313113 0.053026 -0.948234
vn -0.998336 0.057664 -0.000000
vn -0.998335 0.057676 -0.000000
vn -0.312981 0.052913 0.948284
vn -0.313075 0.056021 0.948075
vn 0.808337 0.046540 0.586878
vn 0.808272 0.047574 0.586884
vn 0.808419 0.044663 -0.586910
vn 0.808346 0.045901 -0.586916
vn -0.311392 0.035111 -0.949633
vn -0.311403 0.035248 -0.949624
vn -0.999798 0.020084 0.000000
vn -0.999789 0.020565 0.000000
vn -0.310292 0.005548 0.950625
vn -0.310305 0.005716 0.950620
vn 0.809307 0.008360 0.587327
vn 0.809307 0.008080 0.587331
vn 0.808725 0.027104 -0.587562
vn 0.808738 0.026607 -0.587566
vn -0.308892 -0.012705 -0.951012
vn -0.308832 -0.015119 -0.950996
vn -0.999901 -0.014090 0.000000
vn -0.999893 -0.014632 0.000000
vn -0.308876 -0.012798 0.951016
vn -0.308878 -0.012720 0.951017
vn 0.809203 -0.011487 0.587417
vn 0.809204 -0.011112 0.587423
vn 0.809200 -0.011839 -0.587415
vn 0.809199 -0.012176 -0.587409
vn -0.308763 -0.005542 -0.951123
vn -0.308766 -0.005361 -0.951123
vn -1.000000 -0.000213 0.000002
vn -1.000000 0.000335 0.000002
vn -0.308985 0.005795 0.951049
vn -0.308986 0.005868 0.951049
vn 0.809052 0.003724 0.587725
vn 0.809055 0.003524 0.587723
vn 0.809106 -0.003091 -0.587654
vn 0.809110 -0.003701 -0.587646
vn -0.309471 0.005959 -0.950890
vn -0.309462 0.006015 -0.950893
vn -0.999974 0.007248 0.000002
vn -0.999974 0.007206 0.000002
vn -0.308795 0.015059 0.951010
vn -0.308788 0.015266 0.951009
vn 0.809619 0.021450 0.586563
vn 0.809621 0.021499 0.586559
vn 0.809565 0.015870 -0.586816
vn 0.809544 0.015557 -0.586853
vn -0.309675 0.015509 -0.950716
vn -0.309746 0.014488 -0.950709
vn -0.999868 0.016267 0.000004
vn -0.999867 0.016315 0.000004
vn -0.309629 0.016571 0.950713
vn -0.309722 0.015416 0.950702
vn 0.811295 0.015601 0.584429
vn 0.811280 0.013915 0.584492
vn 0.811290 0.013648 -0.584485
vn 0.811294 0.014706 -0.584453
vn -0.309501 0.017982 -0.950729
vn -0.309501 0.017982 -0.950729
vn -0.999819 0.019020 0.000004
vn -0.999819 0.019020 0.000004
vn -0.309937 0.012729 0.950672
vn -0.309937 0.012729 0.950672
vn 0.811187 0.006543 0.584750
vn 0.811187 0.006543 0.584750
vn 0.811265 0.009744 -0.584598
vn 0.811265 0.009744 -0.584598
vn 0.000000 -1.000000 0.000000
vn 0.000000 -1.000000 0.000000
vn 0.000000 -1.000000 0.000000
vn 0.000000 -1.000000 0.000000
vn -0.782447 0.071880 0.618555
vn -0.782447 0.071880 0.618555
vn -0.782447 0.071880 0.618555
vn -0.782447 0.071880 0.618555
vn -0.826424 0.490087 0.277196
vn -0.826424 0.490087 0.277196
vn -0.826424 0.490087 0.277196
vn -0.826424 0.490087 0.277196
vn -0.735924 0.115493 -0.667142
vn -0.735924 0.115493 -0.667142
vn -0.735924 0.115493 -0.667142
vn -0.735924 0.115493 -0.667141
vn -0.003897 -0.999978 -0.005333
vn -0.003897 -0.999978 -0.005333
vn -0.003897 -0.999978 -0.005333
vn -0.003897 -0.999978 -0.005333
vn 0.029305 0.107946 -0.993725
vn 0.029305 0.107946 -0.993725
vn 0.029305 0.107946 -0.993725
vn 0.029305 0.107946 -0.993725
vn 0.576297 0.635131 -0.514287
vn 0.576297 0.635131 -0.514287
vn 0.576297 0.635131 -0.514287
vn 0.576297 0.635131 -0.514287
vn 0.957721 0.102627 0.268772
vn 0.957721 0.102627 0.268772
vn 0.957721 0.102627 0.268772
vn 0.957721 0.102627 0.268772
vn 0.000000 -1.000000 0.000000
vn 0.000000 -1.000000 0.000000
vn 0.000000 -1.000000 0.000000
vn 0.000000 -1.000000 0.000000
vn 0.981407 0.063231 -0.181225
vn 0.981407 0.063231 -0.181225
vn 0.981407 0.063231 -0.181225
vn 0.981407 0.063231 -0.181225
vn 0.088218 0.788106 0.609185
vn 0.088218 0.788106 0.609185
vn 0.088218 0.788106 0.609185
vn 0.088218 0.788106 0.609185
vn 0.035998 0.126256 0.991344
vn 0.035998 0.126256 0.991344
vn 0.035998 0.126256 0.991344
vn 0.035998 0.126256 0.991344
vn 0.069413 -0.997588 0.000000
vn 0.069413 -0.997588 0.000000
vn 0.069413 -0.997588 0.000000
vn 0.069413 -0.997588 0.000000
vn -0.211407 0.099864 0.972283
vn -0.211407 0.099864 0.972283
vn -0.211407 0.099864 0.972283
vn -0.211407 0.099864 0.972283
vn -0.580891 0.658176 0.478926
vn -0.580891 0.658176 0.478926
vn -0.580891 0.658176 0.478926
vn -0.580891 0.658176 0.478926
vn -0.241209 0.075827 -0.967506
vn -0.241209 0.075827 -0.967506
vn -0.241209 0.075827 -0.967506
vn -0.241209 0.075827 -0.967506
vn -0.018494 -0.999782 -0.009674
vn -0.018494 -0.999782 -0.009674
vn -0.018494 -0.999782 -0.009674
vn -0.018494 -0.999782 -0.009674
vn 0.722802 -0.062883 -0.688188
vn 0.722802 -0.062883 -0.688188
vn 0.722802 -0.062883 -0.688188
vn 0.722802 -0.062883 -0.688188
vn 0.368824 0.791685 0.487037
vn 0.368824 0.791685 0.487037
vn 0.368824 0.791685 0.487037
vn 0.368824 0.791685 0.487037
vn -0.492252 0.043216 0.869379
vn -0.492252 0.043216 0.869379
vn -0.492252 0.043216 0.869379
vn -0.492252 0.043216 0.869379
vn 0.047260 -0.997228 -0.057464
vn 0.047260 -0.997228 -0.057464
vn 0.047260 -0.997228 -0.057464
vn 0.047260 -0.997228 -0.057464
vn -0.400420 0.059896 -0.914372
vn -0.400420 0.059896 -0.914372
vn -0.400420 0.059896 -0.914372
vn -0.400420 0.059896 -0.914372
vn 0.457237 0.879467 -0.132182
vn 0.457237 0.879467 -0.132182
vn 0.457237 0.879467 -0.132182
vn 0.457237 0.879467 -0.132182
vn 0.739540 0.075392 0.668877
vn 0.739540 0.075392 0.668877
vn 0.739540 0.075392 0.668877
vn 0.739540 0.075392 0.668877
vn -0.013479 -0.998190 -0.058602
vn -0.013479 -0.998190 -0.058602
vn -0.013479 -0.998190 -0.058602
vn -0.013479 -0.998191 -0.058602
vn -0.004927 0.513844 -0.857870
vn -0.004927 0.513844 -0.857870
vn -0.004927 0.513844 -0.857870
vn -0.004927 0.513844 -0.857870
vn 0.314826 0.131293 -0.940025
vn 0.314826 0.131293 -0.940025
vn 0.314826 0.131293 -0.940025
vn 0.314826 0.131293 -0.940025
vn -0.044919 -0.998046 -0.043441
vn -0.044919 -0.998046 -0.043441
vn -0.044919 -0.998046 -0.043441
vn -0.044919 -0.998046 -0.043441
vn -0.988276 0.145040 0.047695
vn -0.988276 0.145040 0.047695
vn -0.988276 0.145040 0.047695
vn -0.988276 0.145040 0.047695
vn -0.889919 0.420425 -0.176883
vn -0.889919 0.420425 -0.176883
vn -0.889919 0.420425 -0.176883
vn -0.889919 0.420425 -0.176883
vn 0.030397 -0.996187 0.081780
vn 0.030397 -0.996187 0.081780
vn 0.030397 -0.996187 0.081780
vn 0.030397 -0.996187 0.081780
vn 0.149792 0.710201 -0.687879
vn 0.149792 0.710201 -0.687879
vn 0.149792 0.710201 -0.687879
vn 0.149792 0.710201 -0.687879
vn 0.593354 0.121029 -0.795790
vn 0.593354 0.121029 -0.795791
vn 0.593354 0.121029 -0.795791
vn 0.593354 0.121029 -0.795791
vn 0.064429 -0.995975 0.062309
vn 0.064429 -0.995975 0.062309
vn 0.064429 -0.995975 0.062309
vn 0.064429 -0.995975 0.062309
vn -0.941809 0.129211 0.310321
vn -0.941810 0.129211 0.310321
vn -0.941810 0.129211 0.310321
vn -0.941810 0.129211 0.310321
vn -0.847539 0.524442 0.081476
vn -0.847539 0.524442 0.081476
vn -0.847539 0.524442 0.081476
vn -0.847539 0.524442 0.081476
vn -0.009727 -0.998866 -0.046608
vn -0.009727 -0.998866 -0.046608
vn -0.009727 -0.998866 -0.046608
vn -0.009727 -0.998866 -0.046608
vn 0.313058 0.856955 -0.409417
vn 0.313058 0.856955 -0.409417
vn 0.313058 0.856955 -0.409417
vn 0.313058 0.856955 -0.409417
vn 0.821436 0.097624 -0.561882
vn 0.821436 0.097624 -0.561882
vn 0.821436 0.097624 -0.561882
vn 0.821437 0.097624 -0.561882
vn -0.037606 -0.998631 -0.036368
vn -0.037606 -0.998631 -0.036368
vn -0.037606 -0.998631 -0.036368
vn -0.037606 -0.998631 -0.036368
vn -0.958096 0.133564 0.253403
vn -0.958096 0.133564 0.253403
vn -0.958096 0.133564 0.253403
vn -0.958096 0.133564 0.253403
vn -0.826819 0.543694 0.144109
vn -0.826819 0.543694 0.144109
vn -0.826819 0.543694 0.144109
vn -0.826819 0.543694 0.144109
vn 0.050423 -0.986505 -0.155777
vn 0.050423 -0.986504 -0.155777
vn 0.050423 -0.986505 -0.155777
vn 0.050423 -0.986505 -0.155777
vn 0.288026 0.173859 0.941708
vn 0.288026 0.173859 0.941708
vn 0.288026 0.173859 0.941708
vn 0.288026 0.173859 0.941708
vn 0.128646 0.601246 0.788640
vn 0.128646 0.601246 0.788640
vn 0.128646 0.601246 0.788640
vn 0.128646 0.601246 0.788640
vn -0.901368 0.320510 0.291221
vn -0.901368 0.320510 0.291221
vn -0.901368 0.320510 0.291221
vn -0.901368 0.320510 0.291221
vn -0.925505 0.178031 0.334284
vn -0.925505 0.178031 0.334284
vn -0.925505 0.178031 0.334284
vn -0.925505 0.178031 0.334284
vn 0.177311 -0.969867 -0.167089
vn 0.177311 -0.969867 -0.167089
vn 0.177311 -0.969867 -0.167089
vn 0.177311 -0.969867 -0.167089
vn -0.012593 -0.999138 0.039551
vn -0.012593 -0.999138 0.039551
vn -0.012593 -0.999138 0.039551
vn -0.012593 -0.999138 0.039551
vn 0.820962 0.106112 0.561036
vn 0.820962 0.106112 0.561036
vn 0.820962 0.106112 0.561036
vn 0.820962 0.106112 0.561036
vn 0.582693 0.609983 0.537019
vn 0.582693 0.609983 0.537019
vn 0.582693 0.609983 0.537019
vn 0.582693 0.609983 0.537019
vn -0.895238 0.348773 -0.277319
vn -0.895238 0.348773 -0.277319
vn -0.895238 0.348773 -0.277319
vn -0.895238 0.348773 -0.277319
vn -0.935468 0.051914 -0.349578
vn -0.935468 0.051914 -0.349578
vn -0.935468 0.051914 -0.349578
vn -0.935468 0.051914 -0.349578
vn -0.033968 -0.998990 0.029427
vn -0.033968 -0.998990 0.029427
vn -0.033968 -0.998990 0.029427
vn -0.033968 -0.998990 0.029427
s off
g pCylinder1
usemtl initialShadingGroup
f 94/106/1 95/107/2 96/108/3 97/109/4
f 70/82/5 71/83/6 72/84/7 73/85/8
f 106/118/9 107/119/10 108/120/11 109/121/12
f 74/86/13 75/87/14 76/88/15 77/89/16
f 78/90/17 79/91/18 80/92/19 81/93/20
s 1
f 2/2/21 1/1/22 11/23/23
f 3/3/24 2/2/21 11/23/23
f 4/4/25 3/3/24 11/23/23
f 5/5/26 4/4/25 11/23/23
f 1/1/22 5/5/26 11/23/23
s 2
f 52/65/27 53/66/28 54/24/29
f 53/66/28 55/67/30 54/24/29
f 55/67/30 56/68/31 54/24/29
f 56/68/31 57/69/32 54/24/29
f 57/69/32 52/65/27 54/24/29
s 3
f 6/21/33 7/20/34 13/26/35 12/25/36
s 4
f 7/20/37 8/19/38 14/27/39 13/26/40
s 5
f 8/19/41 9/18/42 15/28/43 14/27/44
s 6
f 9/18/45 10/22/46 16/29/47 15/28/48
s 7
f 10/22/49 6/21/50 12/25/51 16/29/52
s 3
f 12/25/36 13/26/35 18/31/53 17/30/54
s 4
f 13/26/40 14/27/39 19/32/55 18/31/56
s 5
f 14/27/44 15/28/43 20/33/57 19/32/58
s 6
f 15/28/48 16/29/47 21/34/59 20/33/60
s 7
f 16/29/52 12/25/51 17/30/61 21/34/62
s 3
f 17/30/54 18/31/53 23/36/63 22/35/64
s 4
f 18/31/56 19/32/55 24/37/65 23/36/66
s 5
f 19/32/58 20/33/57 25/38/67 24/37/68
s 6
f 20/33/60 21/34/59 26/39/69 25/38/70
s 7
f 21/34/62 17/30/61 22/35/71 26/39/72
s 3
f 22/35/64 23/36/63 28/41/73 27/40/74
s 4
f 23/36/66 24/37/65 29/42/75 28/41/76
s 5
f 24/37/68 25/38/67 30/43/77 29/42/78
s 6
f 25/38/70 26/39/69 31/44/79 30/43/80
s 7
f 26/39/72 22/35/71 27/40/81 31/44/82
s 3
f 27/40/74 28/41/73 33/46/83 32/45/84
s 4
f 28/41/76 29/42/75 34/47/85 33/46/86
s 5
f 29/42/78 30/43/77 35/48/87 34/47/88
s 6
f 30/43/80 31/44/79 36/49/89 35/48/90
s 7
f 31/44/82 27/40/81 32/45/91 36/49/92
s 3
f 32/45/84 33/46/83 38/51/93 37/50/94
s 4
f 33/46/86 34/47/85 39/52/95 38/51/96
s 5
f 34/47/88 35/48/87 40/53/97 39/52/98
s 6
f 35/48/90 36/49/89 41/54/99 40/53/100
s 7
f 36/49/92 32/45/91 37/50/101 41/54/102
s 3
f 37/50/94 38/51/93 43/56/103 42/55/104
s 4
f 38/51/96 39/52/95 44/57/105 43/56/106
s 5
f 39/52/98 40/53/97 45/58/107 44/57/108
s 6
f 40/53/100 41/54/99 46/59/109 45/58/110
s 7
f 41/54/102 37/50/101 42/55/111 46/59/112
s 3
f 42/55/104 43/56/103 48/61/113 47/60/114
s 4
f 43/56/106 44/57/105 49/62/115 48/61/116
s 5
f 44/57/108 45/58/107 50/63/117 49/62/118
s 6
f 45/58/110 46/59/109 51/64/119 50/63/120
s 7
f 46/59/112 42/55/111 47/60/121 51/64/122
s 3
f 47/60/114 48/61/113 53/66/123 52/65/124
s 4
f 48/61/116 49/62/115 55/67/125 53/66/126
s 5
f 49/62/118 50/63/117 56/68/127 55/67/128
s 6
f 50/63/120 51/64/119 57/69/129 56/68/130
s 7
f 51/64/122 47/60/121 52/65/131 57/69/132
s off
f 2/7/133 3/8/134 59/71/135 58/70/136
f 106/118/137 109/121/138 110/122/139 111/123/140
f 8/14/141 7/13/142 61/73/143 60/72/144
f 96/108/145 95/107/146 98/110/147 99/111/148
f 5/10/149 1/11/150 63/75/151 62/74/152
f 1/11/153 6/17/154 64/76/155 63/75/156
f 6/17/157 10/16/158 65/77/159 64/76/160
f 10/16/161 5/10/162 62/74/163 65/77/164
f 4/9/165 5/10/166 67/79/167 66/78/168
f 5/10/169 10/16/170 68/80/171 67/79/172
f 10/16/173 9/15/174 69/81/175 68/80/176
f 9/15/177 4/9/178 66/78/179 69/81/180
f 58/70/181 59/71/182 71/83/183 70/82/184
f 59/71/185 60/72/186 72/84/187 71/83/188
f 60/72/189 61/73/190 73/85/191 72/84/192
f 61/73/193 58/70/194 70/82/195 73/85/196
f 66/78/197 67/79/198 75/87/199 74/86/200
f 67/79/201 68/80/202 76/88/203 75/87/204
f 68/80/205 69/81/206 77/89/207 76/88/208
f 69/81/209 66/78/210 74/86/211 77/89/212
f 62/74/213 63/75/214 79/91/215 78/90/216
f 63/75/217 64/76/218 80/92/219 79/91/220
f 64/76/221 65/77/222 81/93/223 80/92/224
f 65/77/225 62/74/226 78/90/227 81/93/228
f 1/6/229 2/7/230 83/95/231 82/94/232
f 7/13/233 6/12/234 85/97/235 84/96/236
f 6/12/237 1/6/238 82/94/239 85/97/240
f 2/7/241 58/70/242 86/98/243 83/95/244
f 58/70/245 61/73/246 87/99/247 86/98/248
f 61/73/249 7/13/250 84/96/251 87/99/252
f 82/94/253 83/95/254 89/101/255 88/100/256
f 84/96/257 85/97/258 91/103/259 90/102/260
f 85/97/261 82/94/262 88/100/263 91/103/264
f 83/95/265 86/98/266 92/104/267 89/101/268
f 86/98/269 87/99/270 93/105/271 92/104/272
f 87/99/273 84/96/274 90/102/275 93/105/276
f 88/100/277 89/101/278 95/107/279 94/106/280
f 90/102/281 91/103/282 97/109/283 96/108/284
f 91/103/285 88/100/286 94/106/287 97/109/288
f 89/101/289 92/104/290 98/110/291 95/107/292
f 92/104/293 93/105/294 99/111/295 98/110/296
f 93/105/297 90/102/298 96/108/299 99/111/300
f 3/8/301 4/9/302 101/113/303 100/112/304
f 4/9/305 9/15/306 102/114/307 101/113/308
f 9/15/309 8/14/310 103/115/311 102/114/312
f 8/14/313 60/72/314 104/116/315 103/115/316
f 60/72/317 59/71/318 105/117/319 104/116/320
f 59/71/321 3/8/322 100/112/323 105/117/324
f 100/112/325 101/113/326 107/119/327 106/118/328
f 101/113/329 102/114/330 108/120/331 107/119/332
f 102/114/333 103/115/334 109/121/335 108/120/336
f 103/115/337 104/116/338 110/122/339 109/121/340
f 104/116/341 105/117/342 111/123/343 110/122/344
f 105/117/345 100/112/346 106/118/347 111/123/348
